# xmcd CD database file
#
# Track frame offsets:
#	183
#	15005
#	29375
#	42933
#	56115
#	69415
#	82578
#	94698
#	106923
#	119820
#	133015
#	146120
#	161473
#	174990
#	187535
#	200763
#	215448
#	229015
#	242135
#	256618
#	270333
#	283378
#	297583
#	310470
#	325333
#
# Disc length: 4530 seconds
#
# Revision: 0
# Processed by: cddbd v1.5.1PL0 Copyright (c) Steve Scherf et al.
# Submitted via: CDex 1.51
#
DISCID=6411b019
DTITLE=Various Artist - The Road To Rhythm and Blues and Rock 'n Roll -Vol 1
DYEAR=1900
DGENRE=Blues
TTITLE0=Blind Blake and Charlie Spand - Hastings Street
TTITLE1=Kokomo Arnold - Milk Cow Blues
TTITLE2=Albert Ammons and his Rhythm Kings - Boogie Woogie Stomp
TTITLE3=The Harlem Hamfats Vocal - My Daddy Was A Lovin' Man
TTITLE4=The Harlem Hamfats Vocal - We Gonna Pitch A Boogie Woogie
TTITLE5=Jimmy Rushing w. Count Basie and His Orchestra - Boogie Woogie (I May Be Wrong)
TTITLE6=Big Bill Broonsy - Trucking Little Woman
TTITLE7=Georgia White - The Blues Ain't Nothing But...
TTITLE8=Big Joe Turner w. Pete Johnson - Roll 'Em Pete
TTITLE9=Jimmy Rushing w. Count Basie and His Orchestra - Baby Don't Tell Me
TTITLE10=Al Cooper and His Savoy Sultans - Jumpin' At The Savoy
TTITLE11=Avery Parrish w. Erskin Hawkins and His Orchestra - After Hours
TTITLE12=Walter Brown w. The Jay McShann Trio - Confessin' The Blues
TTITLE13=Walter Brown w. The Jay McShann Quartet - Hootie's Ignorant Oil
TTITLE14=Rosetta Tharpe w. Lucky Millinder and His Orchestra - I Want A Tall Skinny Papa
TTITLE15=Ella Mae Morse w. Freddy Slack and His Orchestra - Cow Cow Boogie
TTITLE16=June Richmond w. Andy Clark and His Twelve Clouds of Joy - Hey Lawdy Mama
TTITLE17=Savannah Churchill w. Benny Carter and His Orchestra - Hurry, Hurry
TTITLE18=Dinah Washington w. Lionel Hampton and His Sextet ft. Arnett Cobb - I Know How To Do It
TTITLE19=Albert Ammons - The Boogie Rocks
TTITLE20=The Red Caps - Boogie Woogie On A Saturday Night
TTITLE21=Miss Rhapsody w. June Coles' Orchestra - Groovin' The Blues
TTITLE22=Peter Brown Quintet - Bellvue For You
TTITLE23=Eddie 'Cleanhead' Vinson w. Cootie Williams and His Orchestra - Somebody's Gotta Go
TTITLE24='Hot Lips' Page and His Orchestra ft. Earl Bostic - You Need Coachin'
EXTD=
EXTT0=
EXTT1=
EXTT2=
EXTT3=
EXTT4=
EXTT5=
EXTT6=
EXTT7=
EXTT8=
EXTT9=
EXTT10=
EXTT11=
EXTT12=
EXTT13=
EXTT14=
EXTT15=
EXTT16=
EXTT17=
EXTT18=
EXTT19=
EXTT20=
EXTT21=
EXTT22=
EXTT23=
EXTT24=
PLAYORDER=
